<?xml version="1.0" encoding="UTF-8" standalone="no"?>
<!DOCTYPE svg PUBLIC "-//W3C//DTD SVG 1.1//EN" "http://www.w3.org/Graphics/SVG/1.1/DTD/svg11.dtd">
<svg width="100%" height="100%" viewBox="0 0 697 479" version="1.1" xmlns="http://www.w3.org/2000/svg" xmlns:xlink="http://www.w3.org/1999/xlink" xml:space="preserve" xmlns:serif="http://www.serif.com/" style="fill-rule:evenodd;clip-rule:evenodd;stroke-linejoin:round;stroke-miterlimit:2;">
    <g transform="matrix(1,0,0,1,-196.3,-552.497)">
        <g transform="matrix(4.53335,0,0,4.53335,-1830.81,-3014.42)">
            <path d="M447.197,841.691C447.169,840.994 447.156,840.293 447.156,839.588C447.156,810.463 470.802,786.817 499.927,786.817C521.362,786.817 539.829,799.624 548.087,817.996C555.311,809.438 567.083,805.319 578.609,808.408C594.504,812.667 603.951,829.029 599.692,844.924C595.433,860.818 579.071,870.265 563.176,866.006C557.744,864.551 553.066,861.682 549.43,857.901C541.979,878.011 522.615,892.36 499.927,892.36C478.4,892.36 459.865,879.442 451.66,860.941L452.064,860.941C457.496,847.237 462.421,835.024 473.301,829.118C484.592,823.593 471.657,845.254 465.635,861.154L480.345,861.154C492.017,827.783 513.354,818.231 500.681,842.825C498.632,846.8 496.915,853.268 498.07,857.027C499.646,862.153 504.308,863.505 511.734,862.115C519.629,860.526 527.099,854.557 534.11,843.855L528.931,843.214C514.646,860.089 512.155,853 513.113,848.846C514.463,842.988 518.388,832.9 518.388,832.9C525.106,814.321 503.912,817.076 493.605,827.73C497.048,815.984 478.275,814.049 466.36,828.05L472.265,817.478L459.109,817.371L447.197,841.691ZM576.776,833.841C577.231,833.832 577.567,833.828 577.783,833.828C578.062,833.828 578.418,833.832 578.851,833.841C578.968,833.706 579.105,833.544 579.263,833.355C579.421,833.166 579.522,833.046 579.567,832.997L580.155,832.341C579.61,832.35 579.155,832.355 578.79,832.355C578.353,832.355 577.905,832.35 577.445,832.341L577.236,832.814C577.159,832.994 577.089,833.15 577.026,833.28L576.776,833.841ZM574.587,836.774C575.726,836.337 576.683,836.118 577.457,836.118C577.736,836.118 577.948,836.165 578.092,836.257C578.236,836.349 578.308,836.481 578.308,836.652C578.308,836.715 578.297,836.775 578.275,836.831C578.252,836.888 578.215,836.942 578.163,836.994C578.111,837.045 578.044,837.09 577.96,837.129C577.877,837.167 577.738,837.212 577.542,837.264C577.346,837.316 577.131,837.364 576.897,837.409C576.334,837.517 575.869,837.632 575.502,837.754C575.135,837.875 574.845,838.005 574.634,838.142C574.422,838.28 574.238,838.445 574.08,838.639C573.922,838.833 573.806,839.031 573.732,839.234C573.658,839.436 573.621,839.643 573.621,839.855C573.621,840.202 573.721,840.549 573.921,840.896C574.122,841.243 574.408,841.494 574.779,841.649C575.151,841.805 575.616,841.882 576.175,841.882C576.522,841.882 576.889,841.851 577.276,841.788C577.456,841.121 577.612,840.614 577.743,840.267C577.553,840.33 577.405,840.37 577.297,840.386C577.188,840.401 577.087,840.409 576.992,840.409C576.727,840.409 576.533,840.355 576.411,840.247C576.29,840.139 576.229,840.008 576.229,839.855C576.229,839.756 576.25,839.666 576.293,839.585C576.336,839.504 576.408,839.425 576.509,839.348C576.61,839.272 576.729,839.209 576.866,839.159C577.003,839.11 577.193,839.049 577.436,838.977C577.678,838.905 577.848,838.851 577.944,838.815C578.041,838.779 578.175,838.72 578.346,838.639C578.271,840.189 578.203,841.211 578.141,841.707C578.619,841.698 579.07,841.693 579.493,841.693C579.931,841.693 580.37,841.698 580.812,841.707C580.848,840.274 580.899,839.116 580.967,838.233C581.034,837.351 581.068,836.783 581.068,836.531C581.068,836.035 580.944,835.654 580.696,835.389C580.448,835.123 580.104,834.93 579.662,834.811C579.221,834.692 578.734,834.632 578.202,834.632C577.27,834.632 576.155,834.774 574.857,835.058C574.808,835.418 574.772,835.683 574.749,835.852C574.727,836.02 574.672,836.328 574.587,836.774ZM589.716,833.943C590.212,833.934 590.671,833.929 591.095,833.929C591.505,833.929 591.933,833.934 592.379,833.943C592.379,833.771 592.383,833.623 592.392,833.497L592.433,832.659C592.437,832.564 592.446,832.447 592.46,832.307C592.077,832.316 591.631,832.321 591.122,832.321C590.752,832.321 590.295,832.316 589.75,832.307C589.755,832.461 589.757,832.582 589.757,832.672C589.757,832.983 589.743,833.407 589.716,833.943ZM593.635,841.707L595.103,841.7C595.491,841.7 595.927,841.702 596.409,841.707L596.463,839.666L596.711,834.558L596.865,832.483C596.369,832.492 595.916,832.497 595.505,832.497C595.19,832.497 594.718,832.492 594.091,832.483L594.018,835.201L593.756,840.253L593.635,841.707ZM540.321,844.869C540.867,844.86 541.338,844.855 541.735,844.855C542.209,844.855 542.66,844.86 543.088,844.869C543.119,843.189 543.152,841.873 543.185,840.923C543.219,839.972 543.267,839.02 543.33,838.065C543.392,837.11 543.475,836.067 543.578,834.936C542.344,834.733 541.263,834.632 540.335,834.632C539.731,834.632 539.152,834.684 538.598,834.787C538.044,834.891 537.56,835.065 537.145,835.311C536.731,835.556 536.404,835.858 536.166,836.216C535.927,836.575 535.746,836.962 535.622,837.379C535.498,837.795 535.436,838.22 535.436,838.652C535.436,839.22 535.546,839.748 535.767,840.237C535.988,840.726 536.32,841.122 536.764,841.426C537.207,841.73 537.733,841.882 538.341,841.882C538.567,841.882 538.786,841.86 539,841.815C539.214,841.77 539.417,841.703 539.608,841.615C539.8,841.528 539.961,841.434 540.092,841.335C540.222,841.236 540.389,841.092 540.592,840.903C540.542,841.79 540.504,842.394 540.477,842.713L540.321,844.869ZM540.711,836.693C540.679,837.364 540.642,837.87 540.6,838.21C540.557,838.55 540.492,838.825 540.404,839.034C540.316,839.244 540.207,839.416 540.076,839.551C539.946,839.686 539.802,839.789 539.644,839.859C539.487,839.928 539.325,839.963 539.158,839.963C538.947,839.963 538.753,839.905 538.578,839.788C538.402,839.67 538.275,839.514 538.196,839.318C538.117,839.122 538.078,838.905 538.078,838.666C538.078,838.283 538.152,837.928 538.301,837.602C538.449,837.275 538.669,837.03 538.959,836.865C539.249,836.701 539.606,836.618 540.029,836.618C540.223,836.618 540.45,836.643 540.711,836.693ZM529.672,841.707C530.172,841.698 530.641,841.693 531.079,841.693C531.52,841.693 531.96,841.698 532.397,841.707C532.379,841.36 532.37,841.069 532.37,840.835C532.37,840.168 532.388,839.576 532.424,839.058C532.46,838.54 532.523,838.161 532.613,837.923C532.703,837.684 532.824,837.485 532.974,837.325C533.125,837.165 533.299,837.045 533.494,836.966C533.69,836.888 533.923,836.848 534.193,836.848C534.409,836.848 534.641,836.884 534.889,836.956L534.841,835.916C534.823,835.596 534.812,835.19 534.807,834.699C534.609,834.654 534.429,834.632 534.267,834.632C534.095,834.632 533.931,834.651 533.773,834.689C533.615,834.728 533.464,834.786 533.32,834.865C533.176,834.944 533.047,835.032 532.935,835.129C532.822,835.225 532.678,835.373 532.502,835.571L532.53,834.808C532.044,834.817 531.613,834.821 531.239,834.821C530.92,834.821 530.487,834.817 529.942,834.808C529.951,835.294 529.955,835.702 529.955,836.031C529.955,836.355 529.953,836.673 529.949,836.983L529.881,838.706L529.672,841.707ZM552.283,841.707C552.314,840.315 552.359,839.103 552.418,838.071C552.476,837.04 552.557,835.952 552.66,834.808C552.237,834.817 551.816,834.821 551.398,834.821C551.024,834.821 550.547,834.817 549.967,834.808L549.914,836.22C549.883,836.873 549.859,837.333 549.841,837.598C549.814,837.963 549.776,838.265 549.726,838.504C549.69,838.675 549.636,838.835 549.563,838.984C549.505,839.105 549.437,839.209 549.36,839.294C549.288,839.375 549.209,839.443 549.123,839.497C549.024,839.556 548.92,839.601 548.811,839.632C548.703,839.664 548.595,839.679 548.486,839.679C548.22,839.679 547.99,839.596 547.799,839.429C547.607,839.263 547.511,838.943 547.511,838.47C547.511,838.42 547.512,838.325 547.514,838.183C547.516,838.041 547.533,837.774 547.565,837.382L547.774,834.808C547.297,834.817 546.86,834.821 546.463,834.821C546.072,834.821 545.596,834.817 545.038,834.808C545.038,835.181 545.029,835.578 545.011,835.997C544.984,836.682 544.954,837.305 544.923,837.869L544.815,839.402C544.801,839.574 544.795,839.7 544.795,839.781C544.795,840.114 544.838,840.407 544.926,840.659C545.014,840.912 545.179,841.137 545.42,841.335C545.66,841.533 545.94,841.674 546.257,841.757C546.575,841.841 546.911,841.882 547.267,841.882C547.488,841.882 547.705,841.867 547.919,841.835C548.133,841.804 548.322,841.76 548.487,841.703C548.651,841.647 548.8,841.581 548.933,841.504C549.066,841.427 549.188,841.338 549.301,841.237C549.413,841.136 549.551,840.984 549.713,840.781L549.721,841.707C550.149,841.698 550.575,841.693 550.998,841.693C551.341,841.693 551.769,841.698 552.283,841.707ZM565.566,841.707C566.509,841.698 567.036,841.693 567.149,841.693L568.603,841.707L568.603,841.409L568.61,840.504L568.68,838.071C569.382,838.049 570.03,838.038 570.623,838.038C570.974,838.038 571.511,838.049 572.236,838.071C572.236,837.589 572.26,836.923 572.31,836.071C571.661,836.085 571.179,836.091 570.864,836.091L569.769,836.091L568.789,836.071L568.85,834.497C569.593,834.488 570.042,834.483 570.195,834.483L571.526,834.483L572.472,834.497L573.06,834.517C573.06,834.197 573.096,833.519 573.168,832.483C572.082,832.492 570.951,832.497 569.776,832.497C568.609,832.497 567.347,832.492 565.991,832.483L565.991,833.226C565.991,833.722 565.967,834.687 565.917,836.122C565.868,837.557 565.816,838.684 565.762,839.504C565.726,840.058 565.661,840.792 565.566,841.707ZM588.088,839.551C587.849,839.641 587.652,839.705 587.496,839.744C587.341,839.782 587.159,839.817 586.949,839.848C586.74,839.88 586.558,839.896 586.405,839.896C586.103,839.896 585.826,839.837 585.574,839.72C585.322,839.603 585.138,839.427 585.023,839.193C584.908,838.959 584.851,838.668 584.851,838.321C584.851,837.979 584.915,837.678 585.044,837.419C585.172,837.16 585.37,836.962 585.638,836.825C585.906,836.687 586.218,836.618 586.574,836.618C587.07,836.618 587.64,836.731 588.284,836.956L588.243,836.355C588.221,835.99 588.206,835.723 588.199,835.554C588.192,835.385 588.182,835.22 588.169,835.058L588.155,834.902C587.678,834.79 587.277,834.716 586.953,834.683C586.628,834.649 586.306,834.632 585.986,834.632C585.441,834.632 584.943,834.689 584.493,834.804C584.042,834.919 583.633,835.144 583.263,835.48C582.894,835.816 582.614,836.242 582.425,836.76C582.236,837.278 582.141,837.817 582.141,838.375C582.141,838.984 582.238,839.533 582.432,840.024C582.594,840.443 582.853,840.806 583.209,841.112C583.556,841.409 583.948,841.617 584.385,841.734C584.754,841.833 585.184,841.882 585.675,841.882C586.351,841.882 587.043,841.797 587.75,841.626L587.926,840.544C588.011,840.062 588.065,839.731 588.088,839.551ZM589.291,841.707C589.912,841.698 590.413,841.693 590.796,841.693C591.183,841.693 591.644,841.698 592.18,841.707C592.18,841.247 592.189,840.378 592.207,839.098C592.216,838.378 592.238,837.695 592.272,837.051C592.306,836.407 592.362,835.659 592.439,834.808C591.84,834.817 591.38,834.821 591.06,834.821C590.708,834.821 590.239,834.817 589.653,834.808C589.64,835.695 589.622,836.474 589.6,837.146C589.577,837.817 589.552,838.429 589.522,838.984C589.493,839.538 589.463,839.993 589.432,840.348C589.4,840.704 589.353,841.157 589.291,841.707ZM521.935,836.774C523.074,836.337 524.031,836.118 524.805,836.118C525.085,836.118 525.296,836.165 525.44,836.257C525.584,836.349 525.656,836.481 525.656,836.652C525.656,836.715 525.645,836.775 525.623,836.831C525.6,836.888 525.563,836.942 525.511,836.994C525.459,837.045 525.392,837.09 525.309,837.129C525.225,837.167 525.086,837.212 524.89,837.264C524.694,837.316 524.479,837.364 524.245,837.409C523.682,837.517 523.217,837.632 522.85,837.754C522.483,837.875 522.194,838.005 521.982,838.142C521.77,838.28 521.586,838.445 521.428,838.639C521.27,838.833 521.154,839.031 521.08,839.234C521.006,839.436 520.969,839.643 520.969,839.855C520.969,840.202 521.069,840.549 521.269,840.896C521.47,841.243 521.756,841.494 522.128,841.649C522.499,841.805 522.964,841.882 523.523,841.882C523.87,841.882 524.237,841.851 524.624,841.788C524.805,841.121 524.96,840.614 525.091,840.267C524.901,840.33 524.753,840.37 524.645,840.386C524.537,840.401 524.435,840.409 524.341,840.409C524.075,840.409 523.881,840.355 523.759,840.247C523.638,840.139 523.577,840.008 523.577,839.855C523.577,839.756 523.598,839.666 523.641,839.585C523.684,839.504 523.756,839.425 523.857,839.348C523.958,839.272 524.077,839.209 524.214,839.159C524.351,839.11 524.541,839.049 524.784,838.977C525.026,838.905 525.196,838.851 525.293,838.815C525.389,838.779 525.523,838.72 525.694,838.639C525.619,840.189 525.551,841.211 525.489,841.707C525.967,841.698 526.418,841.693 526.841,841.693C527.279,841.693 527.718,841.698 528.16,841.707C528.196,840.274 528.247,839.116 528.315,838.233C528.382,837.351 528.416,836.783 528.416,836.531C528.416,836.035 528.292,835.654 528.044,835.389C527.796,835.123 527.452,834.93 527.01,834.811C526.569,834.692 526.082,834.632 525.55,834.632C524.618,834.632 523.503,834.774 522.205,835.058C522.156,835.418 522.12,835.683 522.097,835.852C522.075,836.02 522.021,836.328 521.935,836.774ZM560.498,839.666C559.94,839.833 559.47,839.951 559.089,840.021C558.709,840.091 558.37,840.125 558.072,840.125C557.572,840.125 557.149,840.011 556.802,839.782C556.455,839.553 556.282,839.197 556.282,838.712C556.282,838.654 556.284,838.589 556.288,838.517L561.025,838.511C561.084,838.195 561.113,837.909 561.113,837.652C561.113,837.22 561.044,836.817 560.907,836.443C560.77,836.069 560.539,835.733 560.214,835.436C559.89,835.139 559.495,834.93 559.029,834.811C558.562,834.692 558.072,834.632 557.559,834.632C557.063,834.632 556.579,834.697 556.106,834.828C555.633,834.958 555.215,835.179 554.853,835.489C554.49,835.8 554.194,836.231 553.964,836.782C553.734,837.333 553.619,837.897 553.619,838.473C553.619,838.883 553.677,839.281 553.792,839.668C553.907,840.055 554.074,840.389 554.295,840.671C554.516,840.952 554.79,841.187 555.116,841.376C555.443,841.565 555.831,841.697 556.282,841.771C556.732,841.845 557.225,841.882 557.762,841.882C558.126,841.882 558.487,841.865 558.843,841.832C559.199,841.798 559.638,841.729 560.16,841.626C560.327,840.589 560.44,839.936 560.498,839.666ZM556.343,837.483C556.374,837.303 556.406,837.162 556.437,837.061C556.469,836.96 556.518,836.855 556.586,836.747C556.653,836.639 556.738,836.543 556.839,836.46C556.941,836.376 557.054,836.313 557.18,836.271C557.307,836.228 557.437,836.206 557.572,836.206C557.766,836.206 557.941,836.245 558.096,836.321C558.251,836.398 558.371,836.519 558.454,836.686C558.537,836.853 558.579,837.053 558.579,837.287C558.579,837.342 558.577,837.407 558.572,837.483L556.343,837.483Z" style="fill:rgb(0,2,88);"/>
        </g>
    </g>
</svg>
